<mxfile host="Electron" agent="Mozilla/5.0 (Windows NT 10.0; Win64; x64) AppleWebKit/537.36 (KHTML, like Gecko) draw.io/24.7.17 Chrome/128.0.6613.36 Electron/32.0.1 Safari/537.36" version="24.7.17">
  <diagram name="Page-1" id="M85DSNcXZ6MnLsOO5TyW">
    <mxGraphModel dx="1632" dy="773" grid="1" gridSize="10" guides="1" tooltips="1" connect="1" arrows="1" fold="1" page="1" pageScale="1" pageWidth="1169" pageHeight="827" math="0" shadow="0">
      <root>
        <mxCell id="0" />
        <mxCell id="1" parent="0" />
        <mxCell id="HEJ51Yvgh-nc350RIsCx-1" value="Catégorie" style="rounded=0;whiteSpace=wrap;html=1;" parent="1" vertex="1">
          <mxGeometry x="205.07999999999998" y="164" width="95.3" height="40" as="geometry" />
        </mxCell>
        <mxCell id="HEJ51Yvgh-nc350RIsCx-2" value="&lt;span&gt;Id&lt;/span&gt;" style="ellipse;whiteSpace=wrap;html=1;fontStyle=4" parent="1" vertex="1">
          <mxGeometry x="113.38" y="120" width="65.3" height="50" as="geometry" />
        </mxCell>
        <mxCell id="HEJ51Yvgh-nc350RIsCx-3" value="Modèle" style="rounded=0;whiteSpace=wrap;html=1;" parent="1" vertex="1">
          <mxGeometry x="602" y="164" width="100" height="40" as="geometry" />
        </mxCell>
        <mxCell id="HEJ51Yvgh-nc350RIsCx-4" value="Voiture" style="rounded=0;whiteSpace=wrap;html=1;" parent="1" vertex="1">
          <mxGeometry x="599.65" y="354" width="104.7" height="40" as="geometry" />
        </mxCell>
        <mxCell id="HEJ51Yvgh-nc350RIsCx-5" value="Location" style="rounded=0;whiteSpace=wrap;html=1;" parent="1" vertex="1">
          <mxGeometry x="600" y="543" width="105.3" height="46" as="geometry" />
        </mxCell>
        <mxCell id="HEJ51Yvgh-nc350RIsCx-6" value="Nom" style="ellipse;whiteSpace=wrap;html=1;" parent="1" vertex="1">
          <mxGeometry x="642" y="80" width="65.3" height="40" as="geometry" />
        </mxCell>
        <mxCell id="HEJ51Yvgh-nc350RIsCx-8" value="Marque" style="ellipse;whiteSpace=wrap;html=1;" parent="1" vertex="1">
          <mxGeometry x="701.4" y="113.5" width="65.3" height="40" as="geometry" />
        </mxCell>
        <mxCell id="HEJ51Yvgh-nc350RIsCx-9" value="Nbr siège" style="ellipse;whiteSpace=wrap;html=1;" parent="1" vertex="1">
          <mxGeometry x="720.0000000000001" y="161.5" width="72.65" height="45" as="geometry" />
        </mxCell>
        <mxCell id="HEJ51Yvgh-nc350RIsCx-10" value="Plaque&lt;br&gt;immatriculation" style="ellipse;whiteSpace=wrap;html=1;" parent="1" vertex="1">
          <mxGeometry x="752" y="354" width="94.7" height="56" as="geometry" />
        </mxCell>
        <mxCell id="HEJ51Yvgh-nc350RIsCx-11" value="Couleur" style="ellipse;whiteSpace=wrap;html=1;" parent="1" vertex="1">
          <mxGeometry x="766.7000000000002" y="308" width="65.3" height="40" as="geometry" />
        </mxCell>
        <mxCell id="HEJ51Yvgh-nc350RIsCx-12" value="" style="endArrow=none;html=1;rounded=0;entryX=0.262;entryY=0.935;entryDx=0;entryDy=0;exitX=0.25;exitY=0;exitDx=0;exitDy=0;entryPerimeter=0;" parent="1" source="HEJ51Yvgh-nc350RIsCx-3" target="HEJ51Yvgh-nc350RIsCx-6" edge="1">
          <mxGeometry width="50" height="50" relative="1" as="geometry">
            <mxPoint x="761.7" y="279" as="sourcePoint" />
            <mxPoint x="811.7" y="229" as="targetPoint" />
          </mxGeometry>
        </mxCell>
        <mxCell id="HEJ51Yvgh-nc350RIsCx-13" value="" style="endArrow=none;html=1;rounded=0;entryX=0;entryY=1;entryDx=0;entryDy=0;exitX=0.5;exitY=0;exitDx=0;exitDy=0;" parent="1" source="HEJ51Yvgh-nc350RIsCx-3" target="HEJ51Yvgh-nc350RIsCx-8" edge="1">
          <mxGeometry width="50" height="50" relative="1" as="geometry">
            <mxPoint x="614.7" y="219" as="sourcePoint" />
            <mxPoint x="574.7" y="189" as="targetPoint" />
          </mxGeometry>
        </mxCell>
        <mxCell id="HEJ51Yvgh-nc350RIsCx-14" value="Appartenir" style="rhombus;whiteSpace=wrap;html=1;" parent="1" vertex="1">
          <mxGeometry x="422" y="147.75" width="70" height="72.5" as="geometry" />
        </mxCell>
        <mxCell id="HEJ51Yvgh-nc350RIsCx-15" value="" style="endArrow=none;html=1;rounded=0;entryX=0;entryY=0.5;entryDx=0;entryDy=0;exitX=1;exitY=0.5;exitDx=0;exitDy=0;" parent="1" source="HEJ51Yvgh-nc350RIsCx-3" target="HEJ51Yvgh-nc350RIsCx-9" edge="1">
          <mxGeometry width="50" height="50" relative="1" as="geometry">
            <mxPoint x="761.7" y="469" as="sourcePoint" />
            <mxPoint x="811.7" y="419" as="targetPoint" />
          </mxGeometry>
        </mxCell>
        <mxCell id="HEJ51Yvgh-nc350RIsCx-16" value="" style="endArrow=none;html=1;rounded=0;entryX=1;entryY=0.5;entryDx=0;entryDy=0;exitX=0;exitY=0.5;exitDx=0;exitDy=0;" parent="1" source="HEJ51Yvgh-nc350RIsCx-14" target="HEJ51Yvgh-nc350RIsCx-1" edge="1">
          <mxGeometry width="50" height="50" relative="1" as="geometry">
            <mxPoint x="679.35" y="474" as="sourcePoint" />
            <mxPoint x="729.35" y="424" as="targetPoint" />
          </mxGeometry>
        </mxCell>
        <mxCell id="HEJ51Yvgh-nc350RIsCx-17" value="" style="endArrow=none;html=1;rounded=0;entryX=1;entryY=0.5;entryDx=0;entryDy=0;exitX=0;exitY=0.5;exitDx=0;exitDy=0;" parent="1" source="HEJ51Yvgh-nc350RIsCx-3" target="HEJ51Yvgh-nc350RIsCx-14" edge="1">
          <mxGeometry width="50" height="50" relative="1" as="geometry">
            <mxPoint x="679.35" y="474" as="sourcePoint" />
            <mxPoint x="729.35" y="424" as="targetPoint" />
          </mxGeometry>
        </mxCell>
        <mxCell id="HEJ51Yvgh-nc350RIsCx-18" value="1,1" style="text;html=1;align=center;verticalAlign=middle;resizable=0;points=[];autosize=1;strokeColor=none;fillColor=none;" parent="1" vertex="1">
          <mxGeometry x="557" y="161" width="40" height="30" as="geometry" />
        </mxCell>
        <mxCell id="HEJ51Yvgh-nc350RIsCx-19" value="0,n" style="text;html=1;align=center;verticalAlign=middle;resizable=0;points=[];autosize=1;strokeColor=none;fillColor=none;" parent="1" vertex="1">
          <mxGeometry x="300.38" y="161" width="40" height="30" as="geometry" />
        </mxCell>
        <mxCell id="HEJ51Yvgh-nc350RIsCx-20" value="" style="endArrow=none;html=1;rounded=0;entryX=0;entryY=0.5;entryDx=0;entryDy=0;exitX=1;exitY=0.5;exitDx=0;exitDy=0;" parent="1" source="HEJ51Yvgh-nc350RIsCx-4" target="HEJ51Yvgh-nc350RIsCx-10" edge="1">
          <mxGeometry width="50" height="50" relative="1" as="geometry">
            <mxPoint x="739.35" y="474" as="sourcePoint" />
            <mxPoint x="789.35" y="424" as="targetPoint" />
          </mxGeometry>
        </mxCell>
        <mxCell id="HEJ51Yvgh-nc350RIsCx-21" value="" style="endArrow=none;html=1;rounded=0;entryX=0.018;entryY=0.685;entryDx=0;entryDy=0;exitX=1;exitY=0.5;exitDx=0;exitDy=0;entryPerimeter=0;" parent="1" source="HEJ51Yvgh-nc350RIsCx-4" target="HEJ51Yvgh-nc350RIsCx-11" edge="1">
          <mxGeometry width="50" height="50" relative="1" as="geometry">
            <mxPoint x="1011.35" y="223" as="sourcePoint" />
            <mxPoint x="1016.35" y="164" as="targetPoint" />
          </mxGeometry>
        </mxCell>
        <mxCell id="HEJ51Yvgh-nc350RIsCx-22" value="Posseder" style="rhombus;whiteSpace=wrap;html=1;" parent="1" vertex="1">
          <mxGeometry x="615.5" y="252" width="73" height="64" as="geometry" />
        </mxCell>
        <mxCell id="HEJ51Yvgh-nc350RIsCx-23" value="" style="endArrow=none;html=1;rounded=0;entryX=0.5;entryY=1;entryDx=0;entryDy=0;exitX=0.5;exitY=0;exitDx=0;exitDy=0;" parent="1" source="HEJ51Yvgh-nc350RIsCx-22" target="HEJ51Yvgh-nc350RIsCx-3" edge="1">
          <mxGeometry width="50" height="50" relative="1" as="geometry">
            <mxPoint x="619.35" y="244" as="sourcePoint" />
            <mxPoint x="529.35" y="244" as="targetPoint" />
          </mxGeometry>
        </mxCell>
        <mxCell id="HEJ51Yvgh-nc350RIsCx-24" value="" style="endArrow=none;html=1;rounded=0;entryX=0.5;entryY=1;entryDx=0;entryDy=0;exitX=0.5;exitY=0;exitDx=0;exitDy=0;" parent="1" source="HEJ51Yvgh-nc350RIsCx-4" target="HEJ51Yvgh-nc350RIsCx-22" edge="1">
          <mxGeometry width="50" height="50" relative="1" as="geometry">
            <mxPoint x="809.35" y="244" as="sourcePoint" />
            <mxPoint x="719.35" y="244" as="targetPoint" />
          </mxGeometry>
        </mxCell>
        <mxCell id="HEJ51Yvgh-nc350RIsCx-25" value="1,1" style="text;html=1;align=center;verticalAlign=middle;resizable=0;points=[];autosize=1;strokeColor=none;fillColor=none;" parent="1" vertex="1">
          <mxGeometry x="648.5" y="324" width="40" height="30" as="geometry" />
        </mxCell>
        <mxCell id="HEJ51Yvgh-nc350RIsCx-26" value="&lt;div style=&quot;text-align: center;&quot;&gt;&lt;u style=&quot;background-color: initial;&quot;&gt;Contrainte&lt;/u&gt;&lt;/div&gt;- Un emplacement doit être identifié par une lettre de A à F suivi d&#39;un nombre de 1 à 20&lt;div&gt;- Un emplacement peut etre null si une voiture est louée&lt;/div&gt;&lt;div&gt;&lt;br&gt;&lt;/div&gt;" style="text;html=1;strokeColor=none;fillColor=none;align=left;verticalAlign=middle;whiteSpace=wrap;rounded=0;" parent="1" vertex="1">
          <mxGeometry x="19.640000000000008" y="298" width="170" height="116" as="geometry" />
        </mxCell>
        <mxCell id="HEJ51Yvgh-nc350RIsCx-29" value="&lt;span&gt;Date_debut&lt;/span&gt;" style="ellipse;whiteSpace=wrap;html=1;fontStyle=0" parent="1" vertex="1">
          <mxGeometry x="610" y="621" width="65.3" height="40" as="geometry" />
        </mxCell>
        <mxCell id="HEJ51Yvgh-nc350RIsCx-30" value="Durée" style="ellipse;whiteSpace=wrap;html=1;" parent="1" vertex="1">
          <mxGeometry x="707.3" y="618.5" width="65.3" height="40" as="geometry" />
        </mxCell>
        <mxCell id="HEJ51Yvgh-nc350RIsCx-31" value="Montant à payer" style="ellipse;whiteSpace=wrap;html=1;dashed=1;" parent="1" vertex="1">
          <mxGeometry x="800" y="583.5" width="76.62" height="50" as="geometry" />
        </mxCell>
        <mxCell id="HEJ51Yvgh-nc350RIsCx-32" value="" style="endArrow=none;html=1;rounded=0;exitX=0.5;exitY=0;exitDx=0;exitDy=0;entryX=0.5;entryY=1;entryDx=0;entryDy=0;" parent="1" source="HEJ51Yvgh-nc350RIsCx-29" target="HEJ51Yvgh-nc350RIsCx-5" edge="1">
          <mxGeometry width="50" height="50" relative="1" as="geometry">
            <mxPoint x="437.5" y="653.5" as="sourcePoint" />
            <mxPoint x="539.5" y="586.5" as="targetPoint" />
          </mxGeometry>
        </mxCell>
        <mxCell id="HEJ51Yvgh-nc350RIsCx-33" value="" style="endArrow=none;html=1;rounded=0;exitX=0;exitY=0;exitDx=0;exitDy=0;entryX=0.75;entryY=1;entryDx=0;entryDy=0;" parent="1" source="HEJ51Yvgh-nc350RIsCx-30" target="HEJ51Yvgh-nc350RIsCx-5" edge="1">
          <mxGeometry width="50" height="50" relative="1" as="geometry">
            <mxPoint x="541.5" y="663.5" as="sourcePoint" />
            <mxPoint x="565.5" y="609.5" as="targetPoint" />
          </mxGeometry>
        </mxCell>
        <mxCell id="HEJ51Yvgh-nc350RIsCx-34" value="" style="endArrow=none;html=1;rounded=0;exitX=0;exitY=0.5;exitDx=0;exitDy=0;entryX=1;entryY=0.5;entryDx=0;entryDy=0;" parent="1" source="HEJ51Yvgh-nc350RIsCx-31" target="HEJ51Yvgh-nc350RIsCx-5" edge="1">
          <mxGeometry width="50" height="50" relative="1" as="geometry">
            <mxPoint x="634.5" y="663.5" as="sourcePoint" />
            <mxPoint x="618.5" y="609.5" as="targetPoint" />
          </mxGeometry>
        </mxCell>
        <mxCell id="HEJ51Yvgh-nc350RIsCx-35" value="&lt;u&gt;Contrainte&lt;br&gt;&lt;/u&gt;- Un client doit avoir un permis de conduire&lt;br&gt;&amp;nbsp; &amp;nbsp; &amp;nbsp; &amp;nbsp; - Un client doit être âgé d’au moins de 21 ans. (calculé en fonction de la date de naissance)&amp;nbsp; &amp;nbsp;" style="text;html=1;strokeColor=none;fillColor=none;align=center;verticalAlign=middle;whiteSpace=wrap;rounded=0;" parent="1" vertex="1">
          <mxGeometry x="83.03" y="701" width="300" height="60" as="geometry" />
        </mxCell>
        <mxCell id="HEJ51Yvgh-nc350RIsCx-36" value="Client" style="rounded=0;whiteSpace=wrap;html=1;" parent="1" vertex="1">
          <mxGeometry x="204.7" y="553.25" width="105.3" height="46" as="geometry" />
        </mxCell>
        <mxCell id="HEJ51Yvgh-nc350RIsCx-37" value="Effectuer" style="rhombus;whiteSpace=wrap;html=1;" parent="1" vertex="1">
          <mxGeometry x="422" y="540" width="70" height="72.5" as="geometry" />
        </mxCell>
        <mxCell id="HEJ51Yvgh-nc350RIsCx-38" value="" style="endArrow=none;html=1;rounded=0;entryX=1;entryY=0.5;entryDx=0;entryDy=0;exitX=0;exitY=0.75;exitDx=0;exitDy=0;" parent="1" source="HEJ51Yvgh-nc350RIsCx-5" target="HEJ51Yvgh-nc350RIsCx-37" edge="1">
          <mxGeometry width="50" height="50" relative="1" as="geometry">
            <mxPoint x="510.20000000000005" y="576.25" as="sourcePoint" />
            <mxPoint x="709.35" y="405" as="targetPoint" />
          </mxGeometry>
        </mxCell>
        <mxCell id="HEJ51Yvgh-nc350RIsCx-39" value="" style="endArrow=none;html=1;rounded=0;entryX=1;entryY=0.5;entryDx=0;entryDy=0;exitX=0;exitY=0.5;exitDx=0;exitDy=0;" parent="1" source="HEJ51Yvgh-nc350RIsCx-37" target="HEJ51Yvgh-nc350RIsCx-36" edge="1">
          <mxGeometry width="50" height="50" relative="1" as="geometry">
            <mxPoint x="349.350436707587" y="517.1770476957133" as="sourcePoint" />
            <mxPoint x="429.28000000000003" y="527" as="targetPoint" />
          </mxGeometry>
        </mxCell>
        <mxCell id="HEJ51Yvgh-nc350RIsCx-40" value="0,n" style="text;html=1;align=center;verticalAlign=middle;resizable=0;points=[];autosize=1;strokeColor=none;fillColor=none;" parent="1" vertex="1">
          <mxGeometry x="310" y="551" width="40" height="30" as="geometry" />
        </mxCell>
        <mxCell id="HEJ51Yvgh-nc350RIsCx-41" value="1,1" style="text;html=1;align=center;verticalAlign=middle;resizable=0;points=[];autosize=1;strokeColor=none;fillColor=none;" parent="1" vertex="1">
          <mxGeometry x="557" y="540" width="40" height="30" as="geometry" />
        </mxCell>
        <mxCell id="HEJ51Yvgh-nc350RIsCx-42" value="&lt;u&gt;ID&lt;/u&gt;" style="ellipse;whiteSpace=wrap;html=1;" parent="1" vertex="1">
          <mxGeometry x="91.71000000000001" y="578.5" width="60" height="40" as="geometry" />
        </mxCell>
        <mxCell id="HEJ51Yvgh-nc350RIsCx-43" value="N° permis" style="ellipse;whiteSpace=wrap;html=1;" parent="1" vertex="1">
          <mxGeometry x="118.68" y="643.5" width="60" height="40" as="geometry" />
        </mxCell>
        <mxCell id="HEJ51Yvgh-nc350RIsCx-44" value="Date naissance" style="ellipse;whiteSpace=wrap;html=1;" parent="1" vertex="1">
          <mxGeometry x="205.08" y="646" width="77.35" height="50" as="geometry" />
        </mxCell>
        <mxCell id="HEJ51Yvgh-nc350RIsCx-45" value="Age" style="ellipse;whiteSpace=wrap;html=1;dashed=1;" parent="1" vertex="1">
          <mxGeometry x="282" y="618.5" width="60" height="35" as="geometry" />
        </mxCell>
        <mxCell id="HEJ51Yvgh-nc350RIsCx-46" value="" style="endArrow=none;html=1;rounded=0;exitX=1;exitY=0.5;exitDx=0;exitDy=0;entryX=0;entryY=0.5;entryDx=0;entryDy=0;" parent="1" source="HEJ51Yvgh-nc350RIsCx-42" target="HEJ51Yvgh-nc350RIsCx-36" edge="1">
          <mxGeometry width="50" height="50" relative="1" as="geometry">
            <mxPoint x="112.06999999999991" y="610.75" as="sourcePoint" />
            <mxPoint x="712.07" y="464.75" as="targetPoint" />
          </mxGeometry>
        </mxCell>
        <mxCell id="HEJ51Yvgh-nc350RIsCx-47" value="" style="endArrow=none;html=1;rounded=0;exitX=1;exitY=0;exitDx=0;exitDy=0;entryX=0.25;entryY=1;entryDx=0;entryDy=0;" parent="1" source="HEJ51Yvgh-nc350RIsCx-43" target="HEJ51Yvgh-nc350RIsCx-36" edge="1">
          <mxGeometry width="50" height="50" relative="1" as="geometry">
            <mxPoint x="161.99999999999991" y="664.75" as="sourcePoint" />
            <mxPoint x="172" y="586.75" as="targetPoint" />
          </mxGeometry>
        </mxCell>
        <mxCell id="HEJ51Yvgh-nc350RIsCx-48" value="" style="endArrow=none;html=1;rounded=0;exitX=0.5;exitY=0;exitDx=0;exitDy=0;entryX=0.5;entryY=1;entryDx=0;entryDy=0;" parent="1" source="HEJ51Yvgh-nc350RIsCx-44" target="HEJ51Yvgh-nc350RIsCx-36" edge="1">
          <mxGeometry width="50" height="50" relative="1" as="geometry">
            <mxPoint x="172" y="674.75" as="sourcePoint" />
            <mxPoint x="198" y="609.75" as="targetPoint" />
          </mxGeometry>
        </mxCell>
        <mxCell id="HEJ51Yvgh-nc350RIsCx-49" value="" style="endArrow=none;html=1;rounded=0;exitX=0;exitY=0;exitDx=0;exitDy=0;entryX=0.75;entryY=1;entryDx=0;entryDy=0;" parent="1" source="HEJ51Yvgh-nc350RIsCx-45" target="HEJ51Yvgh-nc350RIsCx-36" edge="1">
          <mxGeometry width="50" height="50" relative="1" as="geometry">
            <mxPoint x="241" y="671.75" as="sourcePoint" />
            <mxPoint x="225" y="609.75" as="targetPoint" />
          </mxGeometry>
        </mxCell>
        <mxCell id="HEJ51Yvgh-nc350RIsCx-52" value="" style="endArrow=none;html=1;rounded=0;entryX=0.5;entryY=1;entryDx=0;entryDy=0;exitX=0.5;exitY=0;exitDx=0;exitDy=0;" parent="1" source="HEJ51Yvgh-nc350RIsCx-74" target="HEJ51Yvgh-nc350RIsCx-4" edge="1">
          <mxGeometry width="50" height="50" relative="1" as="geometry">
            <mxPoint x="651.9950000000001" y="430.8249999999998" as="sourcePoint" />
            <mxPoint x="682" y="544" as="targetPoint" />
          </mxGeometry>
        </mxCell>
        <mxCell id="HEJ51Yvgh-nc350RIsCx-54" value="0,n" style="text;html=1;align=center;verticalAlign=middle;resizable=0;points=[];autosize=1;strokeColor=none;fillColor=none;" parent="1" vertex="1">
          <mxGeometry x="645.88" y="394" width="40" height="30" as="geometry" />
        </mxCell>
        <mxCell id="HEJ51Yvgh-nc350RIsCx-55" value="Tarif journalier" style="ellipse;whiteSpace=wrap;html=1;" parent="1" vertex="1">
          <mxGeometry x="118.68" y="204" width="76.62" height="56" as="geometry" />
        </mxCell>
        <mxCell id="HEJ51Yvgh-nc350RIsCx-56" value="" style="endArrow=none;html=1;rounded=0;entryX=1;entryY=0;entryDx=0;entryDy=0;exitX=0;exitY=1;exitDx=0;exitDy=0;" parent="1" source="HEJ51Yvgh-nc350RIsCx-1" target="HEJ51Yvgh-nc350RIsCx-55" edge="1">
          <mxGeometry width="50" height="50" relative="1" as="geometry">
            <mxPoint x="215.03" y="194" as="sourcePoint" />
            <mxPoint x="166.03" y="194" as="targetPoint" />
          </mxGeometry>
        </mxCell>
        <mxCell id="HEJ51Yvgh-nc350RIsCx-57" value="0,n" style="text;html=1;align=center;verticalAlign=middle;resizable=0;points=[];autosize=1;strokeColor=none;fillColor=none;" parent="1" vertex="1">
          <mxGeometry x="645.88" y="204" width="40" height="30" as="geometry" />
        </mxCell>
        <mxCell id="HEJ51Yvgh-nc350RIsCx-58" value="" style="endArrow=none;html=1;rounded=0;exitX=0.5;exitY=0;exitDx=0;exitDy=0;entryX=0.5;entryY=1;entryDx=0;entryDy=0;" parent="1" source="HEJ51Yvgh-nc350RIsCx-5" target="HEJ51Yvgh-nc350RIsCx-74" edge="1">
          <mxGeometry width="50" height="50" relative="1" as="geometry">
            <mxPoint x="612" y="548" as="sourcePoint" />
            <mxPoint x="655" y="511" as="targetPoint" />
          </mxGeometry>
        </mxCell>
        <mxCell id="HEJ51Yvgh-nc350RIsCx-59" value="&lt;u&gt;ID&lt;/u&gt;" style="ellipse;whiteSpace=wrap;html=1;" parent="1" vertex="1">
          <mxGeometry x="534.35" y="621" width="65.3" height="40" as="geometry" />
        </mxCell>
        <mxCell id="HEJ51Yvgh-nc350RIsCx-60" value="" style="endArrow=none;html=1;rounded=0;entryX=0;entryY=1;entryDx=0;entryDy=0;exitX=0.5;exitY=0;exitDx=0;exitDy=0;" parent="1" source="HEJ51Yvgh-nc350RIsCx-59" target="HEJ51Yvgh-nc350RIsCx-5" edge="1">
          <mxGeometry width="50" height="50" relative="1" as="geometry">
            <mxPoint x="570" y="491" as="sourcePoint" />
            <mxPoint x="620" y="441" as="targetPoint" />
          </mxGeometry>
        </mxCell>
        <mxCell id="HEJ51Yvgh-nc350RIsCx-62" value="CATEGORIE(&lt;u&gt;id&lt;/u&gt;, nom, tarif_journalier)&lt;div&gt;MODELE(&lt;u&gt;id&lt;/u&gt;, nom, marque, nbr_siege, #id_categorie)&lt;/div&gt;&lt;div&gt;EMPLACEMENT(&lt;u&gt;id&lt;/u&gt;, code&lt;u&gt;)&lt;/u&gt;&lt;/div&gt;&lt;div&gt;VOITURE(&lt;u&gt;id&lt;/u&gt;,&amp;nbsp;plaque_immatriculation, couleur, #emplacement, #id_modele)&lt;/div&gt;&lt;div&gt;&lt;span style=&quot;background-color: initial;&quot;&gt;LOCATION(&lt;u&gt;ID&lt;/u&gt;, date_debut, duree&lt;/span&gt;&lt;span style=&quot;background-color: initial;&quot;&gt;,&amp;nbsp;&lt;/span&gt;&lt;span style=&quot;background-color: initial;&quot;&gt;montant_a_payer, statut,&amp;nbsp;&lt;/span&gt;&lt;span style=&quot;background-color: initial;&quot;&gt;#plaque_immatriculation, #id_client&lt;/span&gt;&lt;span style=&quot;background-color: initial;&quot;&gt;)&lt;/span&gt;&lt;/div&gt;&lt;div&gt;CLIENT(&lt;u&gt;ID&lt;/u&gt;, n_permis, date_naissance, coordonnées)&lt;/div&gt;" style="text;html=1;align=left;verticalAlign=middle;whiteSpace=wrap;rounded=0;" parent="1" vertex="1">
          <mxGeometry x="820.15" y="69" width="340" height="165" as="geometry" />
        </mxCell>
        <mxCell id="HEJ51Yvgh-nc350RIsCx-63" value="&lt;u&gt;ID&lt;/u&gt;" style="ellipse;whiteSpace=wrap;html=1;" parent="1" vertex="1">
          <mxGeometry x="570" y="74" width="65.3" height="40" as="geometry" />
        </mxCell>
        <mxCell id="HEJ51Yvgh-nc350RIsCx-64" value="" style="endArrow=none;html=1;rounded=0;entryX=0.5;entryY=1;entryDx=0;entryDy=0;exitX=0;exitY=0;exitDx=0;exitDy=0;" parent="1" source="HEJ51Yvgh-nc350RIsCx-3" target="HEJ51Yvgh-nc350RIsCx-63" edge="1">
          <mxGeometry width="50" height="50" relative="1" as="geometry">
            <mxPoint x="637" y="174" as="sourcePoint" />
            <mxPoint x="651" y="120" as="targetPoint" />
          </mxGeometry>
        </mxCell>
        <mxCell id="HEJ51Yvgh-nc350RIsCx-65" value="Coordonnées" style="ellipse;whiteSpace=wrap;html=1;" parent="1" vertex="1">
          <mxGeometry x="84.65000000000003" y="511" width="77.35" height="50" as="geometry" />
        </mxCell>
        <mxCell id="HEJ51Yvgh-nc350RIsCx-66" value="" style="endArrow=none;html=1;rounded=0;entryX=1;entryY=0.5;entryDx=0;entryDy=0;exitX=0.25;exitY=0;exitDx=0;exitDy=0;" parent="1" source="HEJ51Yvgh-nc350RIsCx-36" target="HEJ51Yvgh-nc350RIsCx-65" edge="1">
          <mxGeometry width="50" height="50" relative="1" as="geometry">
            <mxPoint x="600" y="451" as="sourcePoint" />
            <mxPoint x="650" y="401" as="targetPoint" />
          </mxGeometry>
        </mxCell>
        <mxCell id="HEJ51Yvgh-nc350RIsCx-67" value="&lt;div&gt;Diagramme entité-association&lt;/div&gt;&lt;div&gt;Programme de location de voiture au sein d&#39;une entreprise de location de voiture&lt;/div&gt;" style="text;html=1;align=center;verticalAlign=middle;resizable=0;points=[];autosize=1;strokeColor=default;fillColor=none;strokeWidth=2;" parent="1" vertex="1">
          <mxGeometry x="360" y="10" width="450" height="40" as="geometry" />
        </mxCell>
        <mxCell id="HEJ51Yvgh-nc350RIsCx-68" value="&lt;span&gt;Date_fin&lt;/span&gt;" style="ellipse;whiteSpace=wrap;html=1;fontStyle=0;dashed=1;" parent="1" vertex="1">
          <mxGeometry x="670" y="681" width="65.3" height="40" as="geometry" />
        </mxCell>
        <mxCell id="HEJ51Yvgh-nc350RIsCx-69" value="" style="endArrow=none;html=1;rounded=0;entryX=0.6;entryY=0.943;entryDx=0;entryDy=0;entryPerimeter=0;" parent="1" source="HEJ51Yvgh-nc350RIsCx-68" target="HEJ51Yvgh-nc350RIsCx-5" edge="1">
          <mxGeometry width="50" height="50" relative="1" as="geometry">
            <mxPoint x="823" y="626" as="sourcePoint" />
            <mxPoint x="829" y="599" as="targetPoint" />
          </mxGeometry>
        </mxCell>
        <mxCell id="HEJ51Yvgh-nc350RIsCx-70" value="Statut" style="ellipse;whiteSpace=wrap;html=1;" parent="1" vertex="1">
          <mxGeometry x="820.1499999999999" y="521" width="65.3" height="40" as="geometry" />
        </mxCell>
        <mxCell id="HEJ51Yvgh-nc350RIsCx-71" value="" style="endArrow=none;html=1;rounded=0;exitX=0;exitY=0.5;exitDx=0;exitDy=0;entryX=1;entryY=0.25;entryDx=0;entryDy=0;" parent="1" source="HEJ51Yvgh-nc350RIsCx-70" target="HEJ51Yvgh-nc350RIsCx-5" edge="1">
          <mxGeometry width="50" height="50" relative="1" as="geometry">
            <mxPoint x="980" y="576" as="sourcePoint" />
            <mxPoint x="882" y="576" as="targetPoint" />
          </mxGeometry>
        </mxCell>
        <mxCell id="HEJ51Yvgh-nc350RIsCx-74" value="Concerner" style="rhombus;whiteSpace=wrap;html=1;" parent="1" vertex="1">
          <mxGeometry x="615.5" y="445" width="73" height="64" as="geometry" />
        </mxCell>
        <mxCell id="HEJ51Yvgh-nc350RIsCx-75" value="" style="endArrow=none;html=1;rounded=0;entryX=0;entryY=0;entryDx=0;entryDy=0;exitX=1;exitY=1;exitDx=0;exitDy=0;" parent="1" source="HEJ51Yvgh-nc350RIsCx-2" target="HEJ51Yvgh-nc350RIsCx-1" edge="1">
          <mxGeometry width="50" height="50" relative="1" as="geometry">
            <mxPoint x="215" y="214" as="sourcePoint" />
            <mxPoint x="194" y="222" as="targetPoint" />
          </mxGeometry>
        </mxCell>
        <mxCell id="HEJ51Yvgh-nc350RIsCx-76" value="Attribut &lt;b&gt;marque &lt;/b&gt;supprimé afin d&#39;éviter une redondance de donnée avec la marque dans modele&lt;div&gt;En contrepartie j&#39;ai décidé d&#39;attribuer un ID au modèle et de référencer 1 voiture par un ID de modèle&lt;/div&gt;" style="text;html=1;strokeColor=none;fillColor=none;align=left;verticalAlign=middle;whiteSpace=wrap;rounded=0;" parent="1" vertex="1">
          <mxGeometry x="853.31" y="308" width="296.69" height="75" as="geometry" />
        </mxCell>
        <mxCell id="HEJ51Yvgh-nc350RIsCx-77" value="Le montant à payer est calculé en fonction de la catégorie du véhicule et de la durée&amp;nbsp;" style="text;html=1;strokeColor=none;fillColor=none;align=left;verticalAlign=middle;whiteSpace=wrap;rounded=0;" parent="1" vertex="1">
          <mxGeometry x="860" y="626" width="135" height="75" as="geometry" />
        </mxCell>
        <mxCell id="HEJ51Yvgh-nc350RIsCx-78" value="" style="endArrow=none;html=1;rounded=0;entryX=0;entryY=0.5;entryDx=0;entryDy=0;exitX=1;exitY=0.5;exitDx=0;exitDy=0;" parent="1" source="HEJ51Yvgh-nc350RIsCx-83" target="HEJ51Yvgh-nc350RIsCx-4" edge="1">
          <mxGeometry width="50" height="50" relative="1" as="geometry">
            <mxPoint x="557.000000000002" y="374" as="sourcePoint" />
            <mxPoint x="777" y="330" as="targetPoint" />
          </mxGeometry>
        </mxCell>
        <mxCell id="HEJ51Yvgh-nc350RIsCx-79" value="Le sera &quot;en cours, terminé, réservé, annulé&quot; afin de pouvoir gérer les futures réservations" style="text;html=1;strokeColor=none;fillColor=none;align=left;verticalAlign=middle;whiteSpace=wrap;rounded=0;" parent="1" vertex="1">
          <mxGeometry x="900" y="500" width="140" height="72.5" as="geometry" />
        </mxCell>
        <mxCell id="HEJ51Yvgh-nc350RIsCx-80" value="La date de fin est calculée en fonction de la date de début et de la durée" style="text;html=1;strokeColor=none;fillColor=none;align=left;verticalAlign=middle;whiteSpace=wrap;rounded=0;" parent="1" vertex="1">
          <mxGeometry x="661.1" y="721" width="111.5" height="75" as="geometry" />
        </mxCell>
        <mxCell id="HEJ51Yvgh-nc350RIsCx-81" value="1,1" style="text;html=1;align=center;verticalAlign=middle;resizable=0;points=[];autosize=1;strokeColor=none;fillColor=none;" parent="1" vertex="1">
          <mxGeometry x="661.1" y="509" width="40" height="30" as="geometry" />
        </mxCell>
        <mxCell id="HEJ51Yvgh-nc350RIsCx-82" value="Emplacement" style="rounded=0;whiteSpace=wrap;html=1;" parent="1" vertex="1">
          <mxGeometry x="245.29999999999995" y="354" width="104.7" height="40" as="geometry" />
        </mxCell>
        <mxCell id="HEJ51Yvgh-nc350RIsCx-83" value="Se situer" style="rhombus;whiteSpace=wrap;html=1;" parent="1" vertex="1">
          <mxGeometry x="440" y="337.75" width="70" height="72.5" as="geometry" />
        </mxCell>
        <mxCell id="HEJ51Yvgh-nc350RIsCx-84" value="" style="endArrow=none;html=1;rounded=0;entryX=0;entryY=0.5;entryDx=0;entryDy=0;exitX=1;exitY=0.5;exitDx=0;exitDy=0;" parent="1" source="HEJ51Yvgh-nc350RIsCx-82" target="HEJ51Yvgh-nc350RIsCx-83" edge="1">
          <mxGeometry width="50" height="50" relative="1" as="geometry">
            <mxPoint x="520" y="384" as="sourcePoint" />
            <mxPoint x="610" y="384" as="targetPoint" />
          </mxGeometry>
        </mxCell>
        <mxCell id="HEJ51Yvgh-nc350RIsCx-85" value="ID" style="ellipse;whiteSpace=wrap;html=1;fontStyle=4" parent="1" vertex="1">
          <mxGeometry x="189.64" y="295.75" width="50" height="42" as="geometry" />
        </mxCell>
        <mxCell id="HEJ51Yvgh-nc350RIsCx-86" value="" style="endArrow=none;html=1;rounded=0;exitX=0.666;exitY=0.939;exitDx=0;exitDy=0;entryX=0;entryY=0.5;entryDx=0;entryDy=0;exitPerimeter=0;" parent="1" source="HEJ51Yvgh-nc350RIsCx-85" target="HEJ51Yvgh-nc350RIsCx-82" edge="1">
          <mxGeometry width="50" height="50" relative="1" as="geometry">
            <mxPoint x="360" y="384" as="sourcePoint" />
            <mxPoint x="250" y="375" as="targetPoint" />
          </mxGeometry>
        </mxCell>
        <mxCell id="HEJ51Yvgh-nc350RIsCx-87" value="0,1" style="text;html=1;align=center;verticalAlign=middle;resizable=0;points=[];autosize=1;strokeColor=none;fillColor=none;" parent="1" vertex="1">
          <mxGeometry x="559.65" y="348" width="40" height="30" as="geometry" />
        </mxCell>
        <mxCell id="HEJ51Yvgh-nc350RIsCx-88" value="0,1" style="text;html=1;align=center;verticalAlign=middle;resizable=0;points=[];autosize=1;strokeColor=none;fillColor=none;" parent="1" vertex="1">
          <mxGeometry x="343.03" y="348" width="40" height="30" as="geometry" />
        </mxCell>
        <mxCell id="HEJ51Yvgh-nc350RIsCx-89" value="&lt;div&gt;&lt;span&gt;&lt;u&gt;Contrainte&lt;/u&gt;&lt;/span&gt;&lt;/div&gt;&lt;span&gt;Une location peut concerner la même voiture en dehors de la période de location déjà prévue (réservé ou en cours)&lt;/span&gt;" style="text;html=1;strokeColor=none;fillColor=none;align=center;verticalAlign=middle;whiteSpace=wrap;rounded=0;fontStyle=0" parent="1" vertex="1">
          <mxGeometry x="380" y="437.5" width="230" height="60" as="geometry" />
        </mxCell>
        <mxCell id="Zxdwo9RgTbPudTmJ9tI1-1" value="Code" style="ellipse;whiteSpace=wrap;html=1;fontStyle=0" vertex="1" parent="1">
          <mxGeometry x="178.67999999999998" y="395.5" width="50" height="42" as="geometry" />
        </mxCell>
        <mxCell id="Zxdwo9RgTbPudTmJ9tI1-2" value="" style="endArrow=none;html=1;rounded=0;exitX=0;exitY=1;exitDx=0;exitDy=0;entryX=1;entryY=0.5;entryDx=0;entryDy=0;" edge="1" parent="1" source="HEJ51Yvgh-nc350RIsCx-82" target="Zxdwo9RgTbPudTmJ9tI1-1">
          <mxGeometry width="50" height="50" relative="1" as="geometry">
            <mxPoint x="250" y="329" as="sourcePoint" />
            <mxPoint x="255" y="384" as="targetPoint" />
          </mxGeometry>
        </mxCell>
        <mxCell id="Zxdwo9RgTbPudTmJ9tI1-3" value="Nom" style="ellipse;whiteSpace=wrap;html=1;" vertex="1" parent="1">
          <mxGeometry x="181.99" y="80" width="65.3" height="50" as="geometry" />
        </mxCell>
        <mxCell id="Zxdwo9RgTbPudTmJ9tI1-4" value="" style="endArrow=none;html=1;rounded=0;entryX=0.25;entryY=0;entryDx=0;entryDy=0;exitX=0.5;exitY=1;exitDx=0;exitDy=0;" edge="1" parent="1" source="Zxdwo9RgTbPudTmJ9tI1-3" target="HEJ51Yvgh-nc350RIsCx-1">
          <mxGeometry width="50" height="50" relative="1" as="geometry">
            <mxPoint x="179" y="173" as="sourcePoint" />
            <mxPoint x="215" y="174" as="targetPoint" />
          </mxGeometry>
        </mxCell>
        <mxCell id="Zxdwo9RgTbPudTmJ9tI1-5" value="&lt;u&gt;Id&lt;/u&gt;" style="ellipse;whiteSpace=wrap;html=1;" vertex="1" parent="1">
          <mxGeometry x="734.65" y="414" width="58" height="42" as="geometry" />
        </mxCell>
        <mxCell id="Zxdwo9RgTbPudTmJ9tI1-6" value="" style="endArrow=none;html=1;rounded=0;entryX=0;entryY=0;entryDx=0;entryDy=0;exitX=1;exitY=1;exitDx=0;exitDy=0;" edge="1" parent="1" source="HEJ51Yvgh-nc350RIsCx-4" target="Zxdwo9RgTbPudTmJ9tI1-5">
          <mxGeometry width="50" height="50" relative="1" as="geometry">
            <mxPoint x="714" y="384" as="sourcePoint" />
            <mxPoint x="762" y="396" as="targetPoint" />
          </mxGeometry>
        </mxCell>
        <mxCell id="Zxdwo9RgTbPudTmJ9tI1-7" value="&quot;Coordonnées&quot; sera composé de :&lt;div&gt;nom, prenom, email et clé composite adresse&lt;br&gt;&lt;div&gt;&lt;br&gt;&lt;/div&gt;&lt;/div&gt;" style="text;html=1;align=center;verticalAlign=middle;whiteSpace=wrap;rounded=0;" vertex="1" parent="1">
          <mxGeometry x="2.0599999999999987" y="481" width="226.62" height="30" as="geometry" />
        </mxCell>
      </root>
    </mxGraphModel>
  </diagram>
</mxfile>
